<?xml version="1.0" standalone="no"?>
<svg xmlns:xlink="http://www.w3.org/1999/xlink" id="wave" style="transform:rotate(180deg); transition: 0.3s" viewBox="0 0 1440 370" version="1.1" xmlns="http://www.w3.org/2000/svg"><defs><linearGradient id="sw-gradient-0" x1="0" x2="0" y1="1" y2="0"><stop stop-color="rgba(243, 106, 62, 1)" offset="0%"/><stop stop-color="rgba(255, 179, 11, 1)" offset="100%"/></linearGradient></defs><path style="transform:translate(0, 0px); opacity:1" fill="url(#sw-gradient-0)" d="M0,74L80,86.3C160,99,320,123,480,166.5C640,210,800,271,960,259C1120,247,1280,160,1440,111C1600,62,1760,49,1920,49.3C2080,49,2240,62,2400,92.5C2560,123,2720,173,2880,209.7C3040,247,3200,271,3360,265.2C3520,259,3680,222,3840,178.8C4000,136,4160,86,4320,55.5C4480,25,4640,12,4800,43.2C4960,74,5120,148,5280,172.7C5440,197,5600,173,5760,141.8C5920,111,6080,74,6240,74C6400,74,6560,111,6720,141.8C6880,173,7040,197,7200,197.3C7360,197,7520,173,7680,154.2C7840,136,8000,123,8160,104.8C8320,86,8480,62,8640,74C8800,86,8960,136,9120,135.7C9280,136,9440,86,9600,80.2C9760,74,9920,111,10080,123.3C10240,136,10400,123,10560,123.3C10720,123,10880,136,11040,154.2C11200,173,11360,197,11440,209.7L11520,222L11520,370L11440,370C11360,370,11200,370,11040,370C10880,370,10720,370,10560,370C10400,370,10240,370,10080,370C9920,370,9760,370,9600,370C9440,370,9280,370,9120,370C8960,370,8800,370,8640,370C8480,370,8320,370,8160,370C8000,370,7840,370,7680,370C7520,370,7360,370,7200,370C7040,370,6880,370,6720,370C6560,370,6400,370,6240,370C6080,370,5920,370,5760,370C5600,370,5440,370,5280,370C5120,370,4960,370,4800,370C4640,370,4480,370,4320,370C4160,370,4000,370,3840,370C3680,370,3520,370,3360,370C3200,370,3040,370,2880,370C2720,370,2560,370,2400,370C2240,370,2080,370,1920,370C1760,370,1600,370,1440,370C1280,370,1120,370,960,370C800,370,640,370,480,370C320,370,160,370,80,370L0,370Z"/></svg>